Patient4_TMGait_0pt4_02_left_37_EMG.mot
version=1
nRows=26
nColumns=33
inDegrees=no
endheader
time	1LAddLong	2LGlutMax	3LGlutMed	4LIliopsoas	5LSemiMemb	6LBicFemLong	7LRecFem	8LVastMed	9LVastLat	10LGasMed	11LTibAnt	12lTibPost	13LPeroneusLong	14LSol	15LExtDigLong	16LFlexDigLong	17RAddLong	18RGlutMax	19RGlutMed	20RIliopsoas	21RSemiMemb	22RBicFemLong	23RRecFem	24RVastMed	25RVastLat	26RGasMed	27RTibAnt	28RTibPost	29RPeroneusLong	30RSol	31RExtDigLong	32RFlexDigLong
50.38	0.004578	0.018616	0.10956	0.009155	0.001984	-0.004272	0.1088	0.011139	-0.053711	-0.035858	-0.097046	0.00885	-0.055237	0.072632	0.068207	0.002747	-0.063629	-0.23544	0.32028	-0.059052	-0.49042	-0.068665	-0.17502	0.19394	-0.36957	-0.012054	-0.011902	0.001984	0.49469	-0.089722	-0.004272	-0.013123
50.381	0.003662	0.013885	0.075226	-0.001678	0.000153	-0.003967	0.093231	0.014038	-0.04776	-0.13565	-0.073395	0.004272	-0.045776	0.17761	0.03067	0.00885	-0.071411	-0.35111	0.42496	-0.011444	-0.09491	-0.042419	-0.20523	0.23086	-0.2449	-0.005493	-0.020905	0.00412	0.21286	-0.071411	-0.002289	-0.009003
50.382	-0.004425	-0.007477	0.028992	0.022888	-0.001526	-0.006714	0.091858	0.008087	-0.066986	-0.23193	-0.0354	-0.001221	-0.008545	0.093384	-0.024414	-0.002594	-0.054779	-0.43915	1.0614	0.11337	-0.000916	-0.1181	-0.67505	0.12619	-0.11093	-0.007324	-0.009766	0.003357	0.009766	-0.043488	-0.013428	-0.004883
50.383	-0.004272	0.031891	0.009308	0.0177	0.005951	-0.021515	0.072327	0.007782	-0.063629	-0.13809	0.0177	0.006104	-0.020447	0.022125	0.065308	-0.010834	-0.00061	-0.41916	0.44189	0.15152	0.18494	-0.20783	-0.82398	-0.084229	-0.070648	-0.009613	0.003662	0.006561	-0.1947	-0.08728	-0.00351	-0.004578
50.384	0.004883	0.032043	-0.009003	0.005341	0.004272	-0.017242	0.05188	0.00885	-0.049744	-0.074005	0.13092	0.002136	-0.009613	-0.012512	0.046997	-0.014038	0.0383	-0.42099	0.28564	-0.005493	0.13641	-0.19821	-0.60959	-0.12817	-0.024261	-0.006866	0.001678	0.005951	-0.13077	-0.084991	0.002441	-0.013733
50.385	0.00412	0.045776	-0.010986	0.011139	0.008698	-0.009003	0.045776	0.003662	-0.05127	-0.056	0.10162	0.000763	0.018616	-0.040588	0.014038	0.00061	0.12665	-0.3865	0.24155	-0.27573	-0.046692	-0.16968	-0.31952	-0.25406	0.037231	-0.006714	0.012665	0.006104	-0.081482	-0.072021	-0.001678	-0.003967
50.386	0.003967	0.031128	-0.042419	0.026398	0.007324	-0.023956	0.031586	0.00412	-0.052032	0.10117	0.039215	-0.000763	0.057678	-0.091858	0.26886	-0.003357	0.14847	-0.47821	0.16876	-0.23987	-0.36484	-0.11307	-0.21088	-0.35843	0.13977	-0.009766	-0.005188	0.005188	-0.016174	-0.051727	0.001831	-0.014191
50.387	0.006714	0.032501	-0.0737	0.003967	0.009003	-0.021057	0.021057	0.000916	-0.071716	0.13504	0.01236	0.006409	0.053406	-0.12054	0.003204	-0.004578	0.15686	-0.56488	0.30609	-0.076752	-0.37918	-0.14954	-0.2301	-0.38971	0.14893	-0.00946	-0.001373	0.005646	-0.006866	-0.043335	-0.002289	-0.007324
50.388	0.008087	0.036621	-0.073395	-0.017395	0.012207	-0.036011	0.036621	0.006714	-0.073242	0.1445	0.000916	0.022125	0.037079	-0.17059	-0.12589	0.007477	0.22858	-0.69076	0.065918	0.11246	-0.028381	-0.2417	-0.22751	-0.41626	0.13855	-0.010681	0.003357	0.004578	-0.030975	-0.052948	-0.002899	-0.007019
50.389	0.007629	0.044403	0.006561	-0.002136	0.010071	-0.013123	0.007782	0	-0.083618	0.15625	0.018311	0.023651	-0.007477	0.023956	-0.1796	0.006561	0.25207	-0.73196	-0.022278	0.26642	-0.2272	-0.18784	-0.36957	-0.41138	0.15274	-0.007172	0.005646	0.006866	-0.15549	-0.043182	-0.002594	-0.01236
50.39	0.010223	0.048981	0.075073	0.010681	0.008392	-0.001068	-0.024414	0.005341	-0.092468	-0.021973	0.02594	0.001526	0.024109	0.085754	-0.083618	-0.011749	0.14252	-0.68131	0.021973	0.27329	-0.37262	-0.052643	-0.40222	-0.31555	0.22522	-0.016937	0.032196	0.002594	-0.22827	-0.039368	0.00061	-0.013123
50.391	0.004883	0.039978	0.11704	0.003357	-0.003357	-0.005798	-0.072021	0.005951	-0.07782	-0.25406	0.025482	-0.041046	0.01236	0.084076	-0.05249	-0.003967	-0.068207	-0.69305	-0.063324	0.22263	-0.32944	0.17197	-0.45303	-0.14099	0.20935	-0.009918	0.026245	0.007629	-0.036163	-0.069275	-0.003662	-0.007172
50.392	-0.001526	0.069122	0.1416	-0.00946	0.007324	-0.007324	-0.021515	0.005341	-0.068054	-0.12863	0.016785	-0.004883	0.001831	-0.032654	-0.034027	-0.01236	-0.16434	-0.71091	-0.061951	0.074768	-0.005341	0.1947	-0.40649	0.089417	0.13962	-0.000305	-0.020752	0.004578	0.023956	-0.009613	-0.003357	-0.017853
50.393	0.006866	0.043793	0.10986	0.002136	0.000763	0.008698	-0.01236	0.00412	-0.063171	-0.059357	0.009003	-0.012054	0.00473	-0.1294	-0.01709	-0.003357	-0.13473	-0.65506	0.031281	0.006409	0.34851	0.11643	-0.44876	0.70267	0.068054	0.002441	0.024414	0.00412	-0.16617	-0.072479	0	-0.024109
50.394	0.002136	0.071411	0.12924	0.009766	0.004425	0.009613	0.012665	-0.00473	-0.055847	-0.025024	0.009918	-0.01297	0.015717	-0.082245	0.015411	-0.003662	-0.1236	-0.63919	0.30991	-0.044556	0.77118	0.10239	-0.44937	1.086	-0.056152	0.001373	0.046082	0.004272	-0.23911	-0.10666	-0.004425	-0.021057
50.395	0.003815	0.054169	0.13977	0.012512	0.015106	0.009308	-0.012207	0.007629	-0.036316	-0.038757	-0.000916	-0.002594	0.0354	0.097961	0.03479	-0.000153	-0.040131	-0.62393	-0.10849	-0.076752	0.76187	0.0737	-0.31464	0.6517	-0.17181	-0.001221	0.039368	0.005341	-0.30014	-0.11841	-0.00473	-0.02121
50.396	0.015259	0.050812	0.11368	0.020142	0.020447	-0.004883	-0.005035	0.004272	-0.042114	-0.031433	0.034637	-0.001221	-0.001526	0.22598	0.057983	-0.000153	-0.003662	-0.56732	-0.32211	-0.063477	0.65414	-0.007935	-0.25711	0.39444	-0.13596	0.001526	0.060272	-0.001678	-0.55924	-0.07843	-0.005035	-0.022278
50.397	0.007019	0.088196	0.036621	0.020294	0.036011	-0.011749	0.028992	0.002899	-0.03891	-0.010986	0.060577	0.005188	-0.029297	0.26062	0.078278	0.023041	-0.027008	-0.4718	-0.064697	0.011749	0.56625	-0.025177	-0.36011	0.068512	-0.079498	0.001526	0.019226	0.006104	-0.29358	-0.080261	-0.001068	-0.01709
50.398	0.005341	0.088654	0.063477	0.018311	0.011292	-0.038452	0.005646	0.007782	-0.034637	-0.025024	0.070648	0.016327	-0.01297	0.14191	0.066986	0.021973	-0.036316	-0.41199	0.059204	0.046539	0.27512	0.074921	-0.42099	-0.29556	-0.084839	-0.000916	0.015564	0.005493	0.39429	-0.061493	-0.002899	-0.010986
50.399	0.009308	0.12451	0.072632	0.008392	-0.011902	-0.063019	0.035706	0.007019	-0.037384	-0.038147	0.032196	-0.01297	0.10529	0.05249	-0.01709	0.014954	-0.056152	-0.40878	-0.043182	0.12329	0.074768	0.093079	-0.66284	-0.43396	-0.085297	0.003204	-0.002899	0.001831	1.0603	-0.091858	-0.001678	-0.004272
50.4	0.008698	0.073853	0.045776	0.010223	-0.016174	-0.0383	0.018463	-0.001526	-0.034485	-0.044098	-0.077209	-0.004578	0.15915	0.093994	0.044098	0.014648	-0.0177	-0.44174	-0.46707	0.11078	0.34454	0.038605	-0.51804	-0.40848	0.085602	0.002441	0.000153	0.003204	-0.001373	-0.077972	-0.001984	-0.006561
50.401	0.002899	0.13123	0.082245	0.008698	-0.00412	-0.023041	0.0177	0.000916	-0.019684	-0.030365	-0.077209	0.003052	-0.001984	0.14206	0.11154	-0.001678	0.00061	-0.3566	-0.000305	-0.011902	0.74341	0.067596	-0.21332	-0.28351	0.22675	0.004272	-0.011597	0.007019	-0.52506	-0.064392	-0.001373	-0.010681
50.402	0.013123	0.13336	0.058899	-0.001373	0.00351	0.004272	0.029144	0.009918	-0.020447	-0.032349	-0.045624	-0.006866	-0.11154	0.22873	0.38528	0.010834	0.054016	-0.32379	0.16892	-0.079346	0.84015	-0.09613	-0.002289	-0.090942	0.61798	0.005035	-0.029144	0.000153	-0.16556	-0.013275	-0.002441	-0.004578
50.403	0.002441	0.15595	0.0383	-0.009003	0.00946	0.007324	0.014954	0.005188	-0.023041	-0.017548	-0.055542	-0.001984	-0.019531	0.28595	-0.17883	0.003815	0.11749	-0.29358	0.12253	-0.050049	0.55786	-0.29633	0.059967	-0.19974	0.56503	0.012817	-0.068359	0.002594	0.027771	0.001221	-0.007019	-0.005341
50.404	0.004272	0.12161	0.032043	0.007935	0.01358	0.039978	0.026398	0.006104	-0.019531	-0.049133	-0.003662	-0.002441	0.13733	0.2739	-0.20783	0.002747	0.17151	-0.26764	0.28763	-0.075378	0.45502	-0.34912	0.16266	-0.46295	0.20752	-0.004578	-0.057678	0.002747	0.17395	-0.018005	-0.002747	-0.011292
50.405	0.008392	0.15091	0.0354	0.030212	0.016632	0.035706	0.014343	0.002899	-0.009308	-0.036926	0.02533	0.000305	0.082703	0.14267	-0.30228	-0.00946	0.10727	-0.26047	0.29907	-0.066071	0.18494	-0.24445	-0.052795	-0.4454	0.074768	-0.002136	-0.044098	-0.000153	0.23178	-0.009003	-0.004425	-0.004272
